<svg width="299" height="30" viewBox="0 0 299 30" fill="none" xmlns="http://www.w3.org/2000/svg">
<path d="M41.2001 4.63256L39.0974 6.45252L39.7379 9.17422C39.7733 9.32198 39.7642 9.47694 39.7119 9.6195C39.6593 9.76206 39.566 9.88584 39.4435 9.97522C39.3212 10.0646 39.1751 10.1156 39.0236 10.1216C38.8724 10.1277 38.7224 10.0887 38.5934 10.0095L36.2338 8.55276L33.8731 10.0095C33.7438 10.0882 33.5941 10.1269 33.4432 10.1206C33.292 10.1143 33.1461 10.0632 33.0239 9.97395C32.9017 9.88466 32.8086 9.76108 32.7561 9.61876C32.7038 9.47647 32.6947 9.3218 32.7298 9.17422L33.3726 6.45252L31.27 4.63256C31.1557 4.53344 31.073 4.40272 31.0323 4.25673C30.9915 4.11075 30.9948 3.95597 31.0411 3.81169C31.0875 3.66745 31.1755 3.54013 31.2936 3.44564C31.4117 3.35112 31.5549 3.29363 31.7055 3.28034L34.4622 3.05726L35.5255 0.475664C35.5831 0.334968 35.6811 0.214622 35.8069 0.129922C35.933 0.0452241 36.0812 0 36.2327 0C36.3841 0 36.5324 0.0452241 36.6585 0.129922C36.7842 0.214622 36.8823 0.334968 36.9398 0.475664L38.0028 3.05726L40.7592 3.28034C40.9101 3.29316 41.0539 3.35033 41.1726 3.4447C41.291 3.53907 41.3793 3.66642 41.426 3.81087C41.4726 3.95529 41.4759 4.11034 41.4351 4.25659C41.3947 4.40284 41.3117 4.53379 41.1971 4.63303L41.2001 4.63256Z" fill="#FEDA0F"/>
<path d="M55.5969 4.63256L53.4945 6.45252L54.1349 9.17422C54.1704 9.32198 54.1612 9.47694 54.109 9.6195C54.0564 9.76206 53.9631 9.88584 53.8406 9.97522C53.718 10.0646 53.5721 10.1156 53.4207 10.1216C53.2692 10.1277 53.1195 10.0887 52.9905 10.0095L50.6309 8.55276L48.2699 10.0095C48.1408 10.0882 47.9911 10.1269 47.8403 10.1206C47.6891 10.1143 47.5432 10.0632 47.421 9.97395C47.2987 9.88466 47.2054 9.76108 47.1532 9.61876C47.1009 9.47647 47.0917 9.3218 47.1266 9.17422L47.7697 6.45252L45.667 4.63256C45.5528 4.53344 45.4701 4.40272 45.4293 4.25673C45.3886 4.11075 45.3918 3.95597 45.4382 3.81169C45.4845 3.66745 45.5725 3.54013 45.6907 3.44564C45.8088 3.35112 45.952 3.29363 46.1026 3.28034L48.8593 3.05726L49.9225 0.475664C49.9801 0.334968 50.0782 0.214622 50.2039 0.129922C50.33 0.0452241 50.478 0 50.6297 0C50.7812 0 50.9294 0.0452241 51.0555 0.129922C51.1813 0.214622 51.2793 0.334968 51.3369 0.475664L52.3999 3.05726L55.1563 3.28034C55.3072 3.29316 55.451 3.35033 55.5694 3.4447C55.6881 3.53907 55.7764 3.66642 55.823 3.81087C55.8697 3.95529 55.8729 4.11034 55.8322 4.25659C55.7914 4.40284 55.7088 4.53379 55.5942 4.63303L55.5969 4.63256Z" fill="#FEDA0F"/>
<path d="M69.9939 4.63256L67.8915 6.45252L68.532 9.17422C68.5674 9.32198 68.5582 9.47694 68.5057 9.6195C68.4534 9.76206 68.3601 9.88584 68.2376 9.97522C68.115 10.0646 67.9689 10.1156 67.8177 10.1216C67.6662 10.1277 67.5165 10.0887 67.3872 10.0095L65.0279 8.55276L62.6669 10.0095C62.5379 10.0882 62.3882 10.1269 62.237 10.1206C62.0861 10.1143 61.9402 10.0632 61.818 9.97395C61.6957 9.88466 61.6024 9.76108 61.5502 9.61876C61.4979 9.47647 61.4885 9.3218 61.5236 9.17422L62.1667 6.45252L60.064 4.63256C59.9498 4.53344 59.8671 4.40272 59.8263 4.25673C59.7856 4.11075 59.7886 3.95597 59.8352 3.81169C59.8816 3.66745 59.9693 3.54013 60.0877 3.44564C60.2058 3.35112 60.349 3.29363 60.4996 3.28034L63.256 3.05726L64.3196 0.475664C64.3771 0.334968 64.4752 0.214622 64.601 0.129922C64.7267 0.0452241 64.875 0 65.0267 0C65.1782 0 65.3264 0.0452241 65.4522 0.129922C65.5783 0.214622 65.6763 0.334968 65.7339 0.475664L66.7966 3.05726L69.5533 3.28034C69.7042 3.29316 69.848 3.35033 69.9664 3.4447C70.0851 3.53907 70.1731 3.66642 70.22 3.81087C70.2667 3.95529 70.27 4.11034 70.2292 4.25659C70.1885 4.40284 70.1058 4.53379 69.9912 4.63303L69.9939 4.63256Z" fill="#FEDA0F"/>
<path d="M84.3886 4.63256L82.2862 6.45252L82.9267 9.17422C82.9621 9.32198 82.953 9.47694 82.9004 9.6195C82.8481 9.76206 82.7548 9.88584 82.6323 9.97522C82.5097 10.0646 82.3636 10.1156 82.2124 10.1216C82.0609 10.1277 81.9112 10.0887 81.7819 10.0095L79.4226 8.55276L77.0616 10.0095C76.9326 10.0882 76.7829 10.1269 76.6317 10.1206C76.4808 10.1143 76.3349 10.0632 76.2127 9.97395C76.0905 9.88466 75.9971 9.76108 75.9449 9.61876C75.8926 9.47647 75.8832 9.3218 75.9183 9.17422L76.5614 6.45252L74.4588 4.63256C74.3445 4.53344 74.2618 4.40272 74.2211 4.25673C74.1803 4.11075 74.1833 3.95597 74.2299 3.81169C74.2763 3.66745 74.364 3.54013 74.4824 3.44564C74.6005 3.35112 74.7437 3.29363 74.8943 3.28034L77.6507 3.05726L78.7143 0.475664C78.7719 0.334968 78.8699 0.214622 78.9957 0.129922C79.1215 0.0452241 79.2697 0 79.4215 0C79.5729 0 79.7212 0.0452241 79.847 0.129922C79.973 0.214622 80.0711 0.334968 80.1286 0.475664L81.1913 3.05726L83.948 3.28034C84.0989 3.29316 84.2427 3.35033 84.3611 3.4447C84.4798 3.53907 84.5678 3.66642 84.6148 3.81087C84.6614 3.95529 84.6647 4.11034 84.6239 4.25659C84.5832 4.40284 84.5005 4.53379 84.3859 4.63303L84.3886 4.63256Z" fill="#FEDA0F"/>
<path d="M98.7856 4.63256L96.6833 6.45252L97.3237 9.17422C97.3591 9.32198 97.35 9.47694 97.2974 9.6195C97.2452 9.76206 97.1519 9.88584 97.0293 9.97522C96.9068 10.0646 96.7606 10.1156 96.6094 10.1216C96.458 10.1277 96.3083 10.0887 96.1789 10.0095L93.8194 8.55276L91.4586 10.0095C91.3293 10.0882 91.1799 10.1269 91.0287 10.1206C90.8775 10.1143 90.732 10.0632 90.6097 9.97395C90.4875 9.88466 90.3942 9.76108 90.3419 9.61876C90.2894 9.47647 90.2802 9.3218 90.3153 9.17422L90.9582 6.45252L88.8558 4.63256C88.7415 4.53344 88.6588 4.40272 88.6181 4.25673C88.5773 4.11075 88.5803 3.95597 88.627 3.81169C88.6733 3.66745 88.761 3.54013 88.8791 3.44564C88.9975 3.35112 89.1407 3.29363 89.2913 3.28034L92.0477 3.05726L93.1113 0.475664C93.1689 0.334968 93.2666 0.214622 93.3927 0.129922C93.5185 0.0452241 93.6667 0 93.8185 0C93.97 0 94.1182 0.0452241 94.244 0.129922C94.3701 0.214622 94.4678 0.334968 94.5254 0.475664L95.5884 3.05726L98.3451 3.28034C98.496 3.29316 98.6395 3.35033 98.7582 3.4447C98.8769 3.53907 98.9649 3.66642 99.0118 3.81087C99.0585 3.95529 99.0617 4.11034 99.021 4.25659C98.9802 4.40284 98.8972 4.53379 98.7827 4.63303L98.7856 4.63256Z" fill="#E8E8E8"/>
<mask id="mask0_1_37" style="mask-type:alpha" maskUnits="userSpaceOnUse" x="88" y="0" width="6" height="11">
<path d="M93.8756 0.000244141H88.5895V10.1225H93.8756V0.000244141Z" fill="#D9D9D9"/>
</mask>
<g mask="url(#mask0_1_37)">
<path d="M98.7856 4.63278L96.6833 6.45274L97.3237 9.17447C97.3591 9.32223 97.35 9.47716 97.2974 9.61975C97.2452 9.76231 97.1519 9.88609 97.0293 9.97547C96.9068 10.0648 96.7606 10.1158 96.6094 10.1219C96.458 10.128 96.3083 10.0889 96.1789 10.0097L93.8194 8.55298L91.4586 10.0097C91.3293 10.0885 91.1799 10.1272 91.0287 10.1208C90.8775 10.1145 90.732 10.0635 90.6097 9.9742C90.4875 9.88491 90.3942 9.7613 90.3419 9.61901C90.2894 9.47669 90.2802 9.32202 90.3153 9.17447L90.9582 6.45274L88.8558 4.63278C88.7415 4.53366 88.6588 4.40294 88.6181 4.25695C88.5773 4.11097 88.5803 3.95619 88.627 3.81194C88.6733 3.6677 88.761 3.54038 88.8791 3.44586C88.9975 3.35137 89.1407 3.29388 89.2913 3.2806L92.0477 3.05749L93.1113 0.475909C93.1689 0.335213 93.2666 0.214865 93.3927 0.130168C93.5185 0.0454683 93.6667 0.000244141 93.8185 0.000244141C93.97 0.000244141 94.1182 0.0454683 94.244 0.130168C94.3701 0.214865 94.4678 0.335213 94.5254 0.475909L95.5884 3.05749L98.3451 3.2806C98.496 3.29338 98.6395 3.35055 98.7582 3.44492C98.8769 3.53929 98.9649 3.66667 99.0118 3.81109C99.0585 3.95554 99.0617 4.11059 99.021 4.25684C98.9802 4.40309 98.8972 4.53401 98.7827 4.63325L98.7856 4.63278Z" fill="#FEDA0F"/>
</g>
<path d="M31.6408 23.5386V22.7465L35.1351 17.2173H35.71V18.4443H35.3217L32.6814 22.6222V22.6843H37.3872V23.5386H31.6408ZM35.3838 25.1694V23.2978V22.9289V17.2173H36.3V25.1694H35.3838ZM39.1521 25.2315C38.9604 25.2315 38.7963 25.1629 38.659 25.0257C38.5216 24.8885 38.4531 24.7241 38.4531 24.5326C38.4531 24.341 38.5216 24.1766 38.659 24.0395C38.7963 23.9023 38.9604 23.8336 39.1521 23.8336C39.3437 23.8336 39.5079 23.9023 39.6452 24.0395C39.7825 24.1766 39.851 24.341 39.851 24.5326C39.851 24.6594 39.8185 24.7759 39.7538 24.882C39.6918 24.9881 39.6077 25.0736 39.5014 25.1383C39.398 25.2004 39.2814 25.2315 39.1521 25.2315ZM43.8047 25.2781C43.3491 25.2781 42.9387 25.1875 42.5737 25.0063C42.2088 24.8251 41.9164 24.5766 41.6962 24.2608C41.4762 23.945 41.356 23.5852 41.335 23.1814H42.2669C42.3032 23.5411 42.4662 23.8388 42.7562 24.0744C43.0488 24.3074 43.3981 24.4238 43.8047 24.4238C44.1307 24.4238 44.4207 24.3475 44.6743 24.1948C44.9306 24.042 45.1314 23.8324 45.2764 23.5657C45.4237 23.2965 45.4975 22.9924 45.4975 22.6533C45.4975 22.3064 45.4214 21.9971 45.2684 21.7253C45.1184 21.4509 44.9114 21.2347 44.6471 21.0768C44.3832 20.9189 44.0817 20.8387 43.7424 20.8361C43.4991 20.8335 43.2493 20.8711 42.993 20.9487C42.737 21.0238 42.5259 21.1209 42.3602 21.2399L41.4593 21.1312L41.9409 17.2173H46.0721V18.0715H42.7485L42.4689 20.4168H42.5155C42.6785 20.2873 42.8832 20.1799 43.1291 20.0945C43.3751 20.0091 43.6311 19.9664 43.8977 19.9664C44.3846 19.9664 44.8181 20.0828 45.1987 20.3158C45.5817 20.5462 45.882 20.862 46.0993 21.2632C46.3196 21.6645 46.4294 22.1226 46.4294 22.6377C46.4294 23.1451 46.3154 23.5981 46.0878 23.9967C45.8625 24.3928 45.5519 24.706 45.1559 24.9364C44.7599 25.1642 44.3093 25.2781 43.8047 25.2781ZM51.0626 25.1694V19.2053H51.9478V20.1061H52.0101C52.1188 19.811 52.3154 19.5716 52.6004 19.3878C52.885 19.204 53.206 19.1121 53.5633 19.1121C53.6306 19.1121 53.7148 19.1134 53.8154 19.116C53.9164 19.1186 53.9929 19.1225 54.0446 19.1277V20.0595C54.0136 20.0518 53.9424 20.0401 53.8311 20.0246C53.7224 20.0065 53.6073 19.9974 53.4856 19.9974C53.1957 19.9974 52.9367 20.0583 52.709 20.1799C52.4838 20.299 52.3051 20.4647 52.1731 20.6769C52.0438 20.8866 51.9791 21.126 51.9791 21.3952V25.1694H51.0626ZM56.886 25.3091C56.5081 25.3091 56.165 25.2379 55.857 25.0956C55.549 24.9506 55.3042 24.7422 55.1232 24.4704C54.9419 24.1961 54.8513 23.8647 54.8513 23.4764C54.8513 23.1348 54.9186 22.8578 55.0532 22.6455C55.1879 22.4307 55.3677 22.2624 55.593 22.1407C55.818 22.0191 56.0666 21.9285 56.3386 21.8689C56.6129 21.8068 56.8884 21.7576 57.1653 21.7214C57.5279 21.6748 57.8217 21.6399 58.0467 21.6166C58.2747 21.5907 58.4403 21.548 58.544 21.4884C58.65 21.4289 58.7031 21.3253 58.7031 21.1778V21.1467C58.7031 20.7636 58.5983 20.4659 58.3887 20.2537C58.1814 20.0414 57.8669 19.9353 57.445 19.9353C57.0077 19.9353 56.6646 20.0311 56.4162 20.2226C56.1676 20.4142 55.9928 20.6187 55.8918 20.8361L55.0222 20.5255C55.1776 20.1631 55.3845 19.8809 55.6435 19.679C55.9048 19.4745 56.1895 19.3322 56.4977 19.2519C56.8084 19.1691 57.1137 19.1277 57.414 19.1277C57.6056 19.1277 57.8256 19.151 58.0742 19.1976C58.3252 19.2415 58.5673 19.3335 58.8003 19.4732C59.0356 19.613 59.2311 19.824 59.3864 20.1061C59.5417 20.3883 59.6194 20.7662 59.6194 21.2399V25.1694H58.7031V24.3617H58.6565C58.5945 24.4912 58.4908 24.6296 58.3459 24.7772C58.2009 24.9247 58.0081 25.0503 57.7674 25.1538C57.5265 25.2574 57.2327 25.3091 56.886 25.3091ZM57.0257 24.486C57.388 24.486 57.6936 24.4148 57.9419 24.2724C58.1932 24.13 58.3822 23.9463 58.5089 23.7211C58.6385 23.4958 58.7031 23.259 58.7031 23.0105V22.1718C58.6642 22.2184 58.5788 22.2611 58.4468 22.3C58.3175 22.3362 58.1672 22.3685 57.9965 22.397C57.8282 22.4229 57.6638 22.4462 57.5031 22.4669C57.3455 22.485 57.2173 22.5006 57.119 22.5135C56.8807 22.5446 56.6581 22.595 56.4511 22.6649C56.2465 22.7322 56.0808 22.8345 55.9541 22.9717C55.8298 23.1063 55.7678 23.2901 55.7678 23.523C55.7678 23.8414 55.8853 24.0821 56.121 24.2452C56.3592 24.4057 56.6607 24.486 57.0257 24.486ZM63.8858 19.2053V19.9819H60.7949V19.2053H63.8858ZM61.6958 17.7764H62.612V23.4609C62.612 23.7198 62.6498 23.9139 62.7248 24.0433C62.8025 24.1702 62.9008 24.2556 63.0198 24.2996C63.1414 24.341 63.2696 24.3617 63.4042 24.3617C63.5052 24.3617 63.5879 24.3565 63.6528 24.3462C63.7175 24.3332 63.7692 24.3229 63.8082 24.3151L63.9945 25.1383C63.9322 25.1616 63.8457 25.1849 63.7343 25.2082C63.623 25.2341 63.4819 25.247 63.3109 25.247C63.0523 25.247 62.7986 25.1914 62.55 25.0801C62.304 24.9687 62.0997 24.7992 61.9364 24.5714C61.7761 24.3436 61.6958 24.0563 61.6958 23.7094V17.7764ZM65.2642 25.1694V19.2053H66.1804V25.1694H65.2642ZM65.7301 18.2113C65.5515 18.2113 65.3973 18.1505 65.268 18.0288C65.141 17.9072 65.0778 17.7609 65.0778 17.5901C65.0778 17.4192 65.141 17.273 65.268 17.1513C65.3973 17.0296 65.5515 16.9688 65.7301 16.9688C65.9088 16.9688 66.0614 17.0296 66.1881 17.1513C66.3177 17.273 66.3824 17.4192 66.3824 17.5901C66.3824 17.7609 66.3177 17.9072 66.1881 18.0288C66.0614 18.1505 65.9088 18.2113 65.7301 18.2113ZM68.7753 21.5816V25.1694H67.8588V19.2053H68.744V20.1372H68.8216C68.9616 19.8343 69.1739 19.591 69.4586 19.4072C69.7432 19.2208 70.1108 19.1277 70.5611 19.1277C70.9651 19.1277 71.3185 19.2105 71.6212 19.3762C71.9241 19.5392 72.1597 19.7877 72.328 20.1217C72.4961 20.453 72.5802 20.8724 72.5802 21.3797V25.1694H71.664V21.4418C71.664 20.9733 71.5423 20.6083 71.299 20.3469C71.0557 20.0828 70.7217 19.9508 70.2971 19.9508C70.0048 19.9508 69.7432 20.0143 69.5129 20.1411C69.2852 20.2679 69.1051 20.453 68.9731 20.6963C68.8411 20.9396 68.7753 21.2347 68.7753 21.5816ZM76.6621 27.5301C76.2195 27.5301 75.8389 27.4732 75.5206 27.3593C75.2023 27.248 74.9368 27.1004 74.7245 26.9166C74.5149 26.7354 74.348 26.5413 74.2237 26.3342L74.9536 25.8217C75.0366 25.9304 75.1414 26.0546 75.2681 26.1944C75.3951 26.3368 75.5684 26.4597 75.7884 26.5633C76.011 26.6694 76.3025 26.7225 76.6621 26.7225C77.1437 26.7225 77.5408 26.606 77.8541 26.373C78.1674 26.1401 78.3239 25.7751 78.3239 25.2781V24.0666H78.2463C78.1789 24.1753 78.0833 24.31 77.9589 24.4704C77.8373 24.6283 77.6613 24.7694 77.431 24.8937C77.203 25.0153 76.8951 25.0762 76.5068 25.0762C76.0255 25.0762 75.5932 24.9623 75.2099 24.7345C74.8293 24.5067 74.5278 24.1753 74.3052 23.7405C74.0852 23.3056 73.9751 22.7775 73.9751 22.1563C73.9751 21.5454 74.0826 21.0134 74.2975 20.5604C74.5125 20.1048 74.8113 19.7528 75.1946 19.5043C75.5776 19.2532 76.0202 19.1277 76.5224 19.1277C76.9107 19.1277 77.2187 19.1924 77.4464 19.3218C77.677 19.4487 77.8529 19.5936 77.9746 19.7567C78.0989 19.9172 78.1946 20.0492 78.2619 20.1527H78.3552V19.2053H79.2404V25.3402C79.2404 25.8527 79.1238 26.2695 78.8908 26.5905C78.6605 26.914 78.3499 27.1509 77.9589 27.301C77.5707 27.4538 77.1384 27.5301 76.6621 27.5301ZM76.6311 24.253C76.9987 24.253 77.3093 24.1689 77.563 24.0006C77.8166 23.8324 78.0094 23.5903 78.1414 23.2745C78.2734 22.9587 78.3396 22.5808 78.3396 22.1407C78.3396 21.7111 78.2749 21.3318 78.1453 21.0031C78.0159 20.6743 77.8243 20.4168 77.5707 20.2304C77.317 20.044 77.0037 19.9508 76.6311 19.9508C76.2428 19.9508 75.9192 20.0492 75.6605 20.2459C75.4042 20.4426 75.2114 20.7067 75.0818 21.038C74.9551 21.3694 74.8916 21.7369 74.8916 22.1407C74.8916 22.5549 74.9563 22.9212 75.0856 23.2396C75.2176 23.5554 75.4119 23.8039 75.6682 23.9851C75.9269 24.1637 76.2481 24.253 76.6311 24.253ZM86.4159 25.2936C85.8774 25.2936 85.4049 25.1655 84.9986 24.9092C84.5947 24.6529 84.279 24.2944 84.0511 23.8336C83.8261 23.3729 83.7133 22.8345 83.7133 22.2184C83.7133 21.5971 83.8261 21.0548 84.0511 20.5915C84.279 20.1281 84.5947 19.7683 84.9986 19.5121C85.4049 19.2558 85.8774 19.1277 86.4159 19.1277C86.9542 19.1277 87.4255 19.2558 87.8291 19.5121C88.2357 19.7683 88.5514 20.1281 88.7767 20.5915C89.0043 21.0548 89.1183 21.5971 89.1183 22.2184C89.1183 22.8345 89.0043 23.3729 88.7767 23.8336C88.5514 24.2944 88.2357 24.6529 87.8291 24.9092C87.4255 25.1655 86.9542 25.2936 86.4159 25.2936ZM86.4159 24.4704C86.8249 24.4704 87.1612 24.3656 87.4255 24.1559C87.6895 23.9463 87.8849 23.6706 88.0116 23.3289C88.1386 22.9872 88.2021 22.6171 88.2021 22.2184C88.2021 21.8198 88.1386 21.4483 88.0116 21.104C87.8849 20.7597 87.6895 20.4815 87.4255 20.2692C87.1612 20.057 86.8249 19.9508 86.4159 19.9508C86.007 19.9508 85.6704 20.057 85.4064 20.2692C85.1421 20.4815 84.9469 20.7597 84.82 21.104C84.693 21.4483 84.6298 21.8198 84.6298 22.2184C84.6298 22.6171 84.693 22.9872 84.82 23.3289C84.9469 23.6706 85.1421 23.9463 85.4064 24.1559C85.6704 24.3656 86.007 24.4704 86.4159 24.4704ZM91.4336 21.5816V25.1694H90.517V19.2053H91.4023V20.1372H91.4799C91.6199 19.8343 91.8322 19.591 92.1168 19.4072C92.4015 19.2208 92.7691 19.1277 93.2194 19.1277C93.6233 19.1277 93.9768 19.2105 94.2794 19.3762C94.5824 19.5392 94.818 19.7877 94.9863 20.1217C95.1543 20.453 95.2385 20.8724 95.2385 21.3797V25.1694H94.3222V21.4418C94.3222 20.9733 94.2006 20.6083 93.9573 20.3469C93.714 20.0828 93.38 19.9508 92.9554 19.9508C92.6631 19.9508 92.4015 20.0143 92.1712 20.1411C91.9435 20.2679 91.7634 20.453 91.6314 20.6963C91.4994 20.9396 91.4336 21.2347 91.4336 21.5816ZM105.549 19.7023C105.463 19.4409 105.35 19.2066 105.211 18.9995C105.074 18.7899 104.909 18.6113 104.717 18.4637C104.529 18.3162 104.314 18.2036 104.073 18.1259C103.832 18.0482 103.568 18.0094 103.281 18.0094C102.81 18.0094 102.381 18.1311 101.996 18.3744C101.61 18.6177 101.303 18.9762 101.075 19.45C100.848 19.9236 100.734 20.5048 100.734 21.1933C100.734 21.8819 100.849 22.463 101.079 22.9367C101.31 23.4104 101.622 23.7689 102.015 24.0123C102.409 24.2556 102.851 24.3772 103.343 24.3772C103.799 24.3772 104.2 24.2802 104.547 24.086C104.896 23.8893 105.168 23.6123 105.362 23.2551C105.559 22.8953 105.657 22.4721 105.657 21.9854L105.952 22.0476H103.561V21.1933H106.589V22.0476C106.589 22.7025 106.449 23.2719 106.17 23.756C105.893 24.2401 105.51 24.6154 105.02 24.882C104.534 25.1461 103.975 25.2781 103.343 25.2781C102.639 25.2781 102.02 25.1124 101.487 24.7811C100.956 24.4497 100.542 23.9786 100.245 23.3677C99.9493 22.7568 99.802 22.032 99.802 21.1933C99.802 20.5643 99.8861 19.9987 100.054 19.4965C100.225 18.9918 100.466 18.5621 100.776 18.2074C101.087 17.8528 101.455 17.581 101.879 17.392C102.304 17.2031 102.771 17.1086 103.281 17.1086C103.7 17.1086 104.091 17.172 104.453 17.2988C104.818 17.4231 105.143 17.6004 105.428 17.8308C105.715 18.0586 105.955 18.3317 106.147 18.6501C106.338 18.9659 106.47 19.3166 106.543 19.7023H105.549ZM108.099 25.1694V24.4704L110.723 21.5971C111.031 21.2606 111.285 20.9681 111.484 20.7196C111.684 20.4685 111.831 20.233 111.927 20.013C112.025 19.7903 112.074 19.5574 112.074 19.314C112.074 19.0345 112.007 18.7925 111.873 18.588C111.741 18.3834 111.56 18.2256 111.329 18.1142C111.099 18.0029 110.84 17.9473 110.552 17.9473C110.247 17.9473 109.98 18.0107 109.753 18.1375C109.527 18.2618 109.353 18.4365 109.228 18.6617C109.107 18.8869 109.046 19.151 109.046 19.4538H108.13C108.13 18.9879 108.237 18.5789 108.452 18.2269C108.667 17.8748 108.959 17.6004 109.329 17.4037C109.702 17.207 110.12 17.1086 110.584 17.1086C111.05 17.1086 111.462 17.207 111.822 17.4037C112.182 17.6004 112.464 17.8657 112.669 18.1997C112.873 18.5336 112.975 18.9051 112.975 19.314C112.975 19.6065 112.922 19.8926 112.816 20.1721C112.713 20.4491 112.531 20.7585 112.273 21.1001C112.016 21.4393 111.661 21.8534 111.205 22.3427L109.419 24.253V24.3151H113.115V25.1694H108.099Z" fill="#69727A"/>
<path d="M20.8364 10.6684H15.4198V10.4172C15.4198 9.49635 15.6043 8.73454 15.9732 8.14018C16.3421 7.53743 16.9794 7.01001 17.9018 6.5412L18.321 6.33194C19.0672 5.9552 19.2601 5.62871 19.2601 5.24364C19.2601 4.78319 18.8576 4.44835 18.212 4.44835C17.4406 4.44835 16.862 4.85019 16.4595 5.6622L15.4198 4.62416C15.6462 4.13861 16.0152 3.75351 16.5015 3.44376C16.9962 3.13402 17.5412 2.98334 18.1365 2.98334C18.8828 2.98334 19.5284 3.17589 20.0567 3.5777C20.6017 3.97954 20.87 4.53206 20.87 5.2269C20.87 6.3403 20.2411 7.0184 19.0672 7.62114L18.4049 7.95599C17.7005 8.3076 17.3567 8.6257 17.2561 9.18661H20.8364V10.6684ZM20.3585 12.3761H14.4304L11.4705 17.4995H17.3986L20.3669 22.6228L23.3268 17.4995L20.3585 12.3761ZM11.982 20.9234C8.20881 20.9234 5.13995 17.8595 5.13995 14.0923C5.13995 10.3251 8.20881 7.26117 11.982 7.26117L14.3298 2.36385C13.5668 2.21316 12.787 2.13782 11.982 2.13782C5.36634 2.13782 0 7.49556 0 14.0923C0 20.6974 5.35795 26.0551 11.982 26.0551C14.6149 26.0551 17.0549 25.2013 19.0337 23.7614L16.4344 19.2743C15.2438 20.2956 13.6841 20.9234 11.982 20.9234Z" fill="#FF492C"/>
<path d="M195.924 4.63256L193.822 6.45252L194.462 9.17422C194.498 9.32198 194.489 9.47694 194.436 9.6195C194.384 9.76206 194.29 9.88584 194.168 9.97522C194.046 10.0646 193.899 10.1156 193.748 10.1216C193.597 10.1277 193.447 10.0887 193.318 10.0095L190.958 8.55276L188.598 10.0095C188.468 10.0882 188.318 10.1269 188.168 10.1206C188.016 10.1143 187.871 10.0632 187.748 9.97395C187.626 9.88466 187.533 9.76108 187.48 9.61876C187.428 9.47647 187.419 9.3218 187.454 9.17422L188.097 6.45252L185.994 4.63256C185.88 4.53344 185.797 4.40272 185.757 4.25673C185.716 4.11075 185.719 3.95597 185.766 3.81169C185.812 3.66745 185.9 3.54013 186.018 3.44564C186.136 3.35112 186.279 3.29363 186.43 3.28034L189.187 3.05726L190.25 0.475664C190.307 0.334968 190.405 0.214622 190.531 0.129922C190.657 0.0452241 190.806 0 190.957 0C191.109 0 191.257 0.0452241 191.383 0.129922C191.509 0.214622 191.607 0.334968 191.664 0.475664L192.727 3.05726L195.484 3.28034C195.635 3.29316 195.778 3.35033 195.897 3.4447C196.015 3.53907 196.104 3.66642 196.15 3.81087C196.197 3.95529 196.2 4.11034 196.16 4.25659C196.119 4.40284 196.036 4.53379 195.922 4.63303L195.924 4.63256Z" fill="#FEDA0F"/>
<path d="M210.321 4.63256L208.219 6.45252L208.859 9.17422C208.895 9.32198 208.886 9.47694 208.833 9.6195C208.781 9.76206 208.688 9.88584 208.565 9.97522C208.442 10.0646 208.297 10.1156 208.145 10.1216C207.994 10.1277 207.844 10.0887 207.715 10.0095L205.355 8.55276L202.994 10.0095C202.865 10.0882 202.716 10.1269 202.565 10.1206C202.414 10.1143 202.268 10.0632 202.145 9.97395C202.023 9.88466 201.93 9.76108 201.878 9.61876C201.825 9.47647 201.816 9.3218 201.851 9.17422L202.494 6.45252L200.391 4.63256C200.277 4.53344 200.195 4.40272 200.154 4.25673C200.113 4.11075 200.116 3.95597 200.163 3.81169C200.209 3.66745 200.297 3.54013 200.415 3.44564C200.533 3.35112 200.676 3.29363 200.827 3.28034L203.584 3.05726L204.647 0.475664C204.705 0.334968 204.803 0.214622 204.928 0.129922C205.054 0.0452241 205.202 0 205.354 0C205.506 0 205.654 0.0452241 205.78 0.129922C205.906 0.214622 206.004 0.334968 206.061 0.475664L207.124 3.05726L209.881 3.28034C210.032 3.29316 210.175 3.35033 210.294 3.4447C210.413 3.53907 210.501 3.66642 210.547 3.81087C210.594 3.95529 210.597 4.11034 210.557 4.25659C210.516 4.40284 210.433 4.53379 210.319 4.63303L210.321 4.63256Z" fill="#FEDA0F"/>
<path d="M224.718 4.63256L222.616 6.45252L223.256 9.17422C223.292 9.32198 223.283 9.47694 223.23 9.6195C223.178 9.76206 223.085 9.88584 222.962 9.97522C222.839 10.0646 222.693 10.1156 222.542 10.1216C222.391 10.1277 222.241 10.0887 222.112 10.0095L219.752 8.55276L217.391 10.0095C217.262 10.0882 217.113 10.1269 216.961 10.1206C216.811 10.1143 216.665 10.0632 216.542 9.97395C216.42 9.88466 216.327 9.76108 216.275 9.61876C216.222 9.47647 216.213 9.3218 216.248 9.17422L216.891 6.45252L214.788 4.63256C214.674 4.53344 214.592 4.40272 214.551 4.25673C214.51 4.11075 214.513 3.95597 214.56 3.81169C214.606 3.66745 214.694 3.54013 214.812 3.44564C214.93 3.35112 215.073 3.29363 215.224 3.28034L217.98 3.05726L219.044 0.475664C219.102 0.334968 219.2 0.214622 219.325 0.129922C219.451 0.0452241 219.599 0 219.751 0C219.903 0 220.051 0.0452241 220.177 0.129922C220.303 0.214622 220.401 0.334968 220.458 0.475664L221.521 3.05726L224.278 3.28034C224.429 3.29316 224.572 3.35033 224.691 3.4447C224.81 3.53907 224.898 3.66642 224.944 3.81087C224.991 3.95529 224.994 4.11034 224.954 4.25659C224.913 4.40284 224.83 4.53379 224.716 4.63303L224.718 4.63256Z" fill="#FEDA0F"/>
<path d="M239.113 4.63256L237.011 6.45252L237.651 9.17422C237.687 9.32198 237.677 9.47694 237.625 9.6195C237.573 9.76206 237.479 9.88584 237.357 9.97522C237.234 10.0646 237.088 10.1156 236.937 10.1216C236.785 10.1277 236.636 10.0887 236.506 10.0095L234.147 8.55276L231.786 10.0095C231.657 10.0882 231.507 10.1269 231.356 10.1206C231.205 10.1143 231.059 10.0632 230.937 9.97395C230.815 9.88466 230.722 9.76108 230.669 9.61876C230.617 9.47647 230.608 9.3218 230.643 9.17422L231.286 6.45252L229.183 4.63256C229.069 4.53344 228.986 4.40272 228.945 4.25673C228.905 4.11075 228.908 3.95597 228.954 3.81169C229.001 3.66745 229.088 3.54013 229.207 3.44564C229.325 3.35112 229.468 3.29363 229.619 3.28034L232.375 3.05726L233.439 0.475664C233.496 0.334968 233.594 0.214622 233.72 0.129922C233.846 0.0452241 233.994 0 234.146 0C234.297 0 234.446 0.0452241 234.571 0.129922C234.697 0.214622 234.795 0.334968 234.853 0.475664L235.916 3.05726L238.672 3.28034C238.823 3.29316 238.967 3.35033 239.086 3.4447C239.204 3.53907 239.292 3.66642 239.339 3.81087C239.386 3.95529 239.389 4.11034 239.348 4.25659C239.308 4.40284 239.225 4.53379 239.11 4.63303L239.113 4.63256Z" fill="#FEDA0F"/>
<path d="M253.51 4.63256L251.408 6.45252L252.048 9.17422C252.084 9.32198 252.074 9.47694 252.022 9.6195C251.97 9.76206 251.876 9.88584 251.754 9.97522C251.631 10.0646 251.485 10.1156 251.334 10.1216C251.182 10.1277 251.033 10.0887 250.903 10.0095L248.544 8.55276L246.183 10.0095C246.054 10.0882 245.904 10.1269 245.753 10.1206C245.602 10.1143 245.456 10.0632 245.334 9.97395C245.212 9.88466 245.119 9.76108 245.066 9.61876C245.014 9.47647 245.005 9.3218 245.04 9.17422L245.683 6.45252L243.58 4.63256C243.466 4.53344 243.383 4.40272 243.343 4.25673C243.302 4.11075 243.305 3.95597 243.351 3.81169C243.398 3.66745 243.485 3.54013 243.604 3.44564C243.722 3.35112 243.865 3.29363 244.016 3.28034L246.772 3.05726L247.836 0.475664C247.893 0.334968 247.991 0.214622 248.117 0.129922C248.243 0.0452241 248.391 0 248.543 0C248.694 0 248.843 0.0452241 248.968 0.129922C249.094 0.214622 249.192 0.334968 249.25 0.475664L250.313 3.05726L253.069 3.28034C253.22 3.29316 253.364 3.35033 253.483 3.4447C253.601 3.53907 253.689 3.66642 253.736 3.81087C253.783 3.95529 253.786 4.11034 253.745 4.25659C253.705 4.40284 253.622 4.53379 253.507 4.63303L253.51 4.63256Z" fill="#E8E8E8"/>
<mask id="mask1_1_37" style="mask-type:alpha" maskUnits="userSpaceOnUse" x="243" y="0" width="6" height="11">
<path d="M248.6 0.000244141H243.314V10.1225H248.6V0.000244141Z" fill="#D9D9D9"/>
</mask>
<g mask="url(#mask1_1_37)">
<path d="M253.51 4.63278L251.408 6.45274L252.048 9.17447C252.084 9.32223 252.074 9.47716 252.022 9.61975C251.97 9.76231 251.876 9.88609 251.754 9.97547C251.631 10.0648 251.485 10.1158 251.334 10.1219C251.182 10.128 251.033 10.0889 250.903 10.0097L248.544 8.55298L246.183 10.0097C246.054 10.0885 245.904 10.1272 245.753 10.1208C245.602 10.1145 245.456 10.0635 245.334 9.9742C245.212 9.88491 245.119 9.7613 245.066 9.61901C245.014 9.47669 245.005 9.32202 245.04 9.17447L245.683 6.45274L243.58 4.63278C243.466 4.53366 243.383 4.40294 243.343 4.25695C243.302 4.11097 243.305 3.95619 243.351 3.81194C243.398 3.6677 243.485 3.54038 243.604 3.44586C243.722 3.35137 243.865 3.29388 244.016 3.2806L246.772 3.05749L247.836 0.475909C247.893 0.335213 247.991 0.214865 248.117 0.130168C248.243 0.0454683 248.391 0.000244141 248.543 0.000244141C248.694 0.000244141 248.843 0.0454683 248.968 0.130168C249.094 0.214865 249.192 0.335213 249.25 0.475909L250.313 3.05749L253.069 3.2806C253.22 3.29338 253.364 3.35055 253.483 3.44492C253.601 3.53929 253.689 3.66667 253.736 3.81109C253.783 3.95554 253.786 4.11059 253.745 4.25684C253.705 4.40309 253.622 4.53401 253.507 4.63325L253.51 4.63278Z" fill="#FEDA0F"/>
</g>
<path d="M186.365 23.5386V22.7465L189.86 17.2173H190.434V18.4443H190.046L187.406 22.6222V22.6843H192.112V23.5386H186.365ZM190.108 25.1694V23.2978V22.9289V17.2173H191.024V25.1694H190.108ZM193.876 25.2315C193.685 25.2315 193.521 25.1629 193.383 25.0257C193.246 24.8885 193.178 24.7241 193.178 24.5326C193.178 24.341 193.246 24.1766 193.383 24.0395C193.521 23.9023 193.685 23.8336 193.876 23.8336C194.068 23.8336 194.232 23.9023 194.37 24.0395C194.507 24.1766 194.575 24.341 194.575 24.5326C194.575 24.6594 194.543 24.7759 194.478 24.882C194.416 24.9881 194.332 25.0736 194.226 25.1383C194.122 25.2004 194.006 25.2315 193.876 25.2315ZM196.018 23.5386V22.7465L199.512 17.2173H200.087V18.4443H199.699L197.058 22.6222V22.6843H201.764V23.5386H196.018ZM199.761 25.1694V23.2978V22.9289V17.2173H200.677V25.1694H199.761ZM206.31 25.1694V19.2053H207.195V20.1061H207.258C207.366 19.811 207.563 19.5716 207.848 19.3878C208.133 19.204 208.454 19.1121 208.811 19.1121C208.878 19.1121 208.962 19.1134 209.063 19.116C209.164 19.1186 209.241 19.1225 209.292 19.1277V20.0595C209.261 20.0518 209.19 20.0401 209.079 20.0246C208.97 20.0065 208.855 19.9974 208.733 19.9974C208.443 19.9974 208.184 20.0583 207.957 20.1799C207.731 20.299 207.553 20.4647 207.421 20.6769C207.291 20.8866 207.226 21.126 207.226 21.3952V25.1694H206.31ZM212.134 25.3091C211.756 25.3091 211.413 25.2379 211.105 25.0956C210.797 24.9506 210.552 24.7422 210.371 24.4704C210.19 24.1961 210.099 23.8647 210.099 23.4764C210.099 23.1348 210.166 22.8578 210.301 22.6455C210.436 22.4307 210.615 22.2624 210.841 22.1407C211.066 22.0191 211.314 21.9285 211.586 21.8689C211.861 21.8068 212.136 21.7576 212.413 21.7214C212.776 21.6748 213.069 21.6399 213.294 21.6166C213.522 21.5907 213.688 21.548 213.792 21.4884C213.898 21.4289 213.951 21.3253 213.951 21.1778V21.1467C213.951 20.7636 213.846 20.4659 213.636 20.2537C213.429 20.0414 213.115 19.9353 212.693 19.9353C212.255 19.9353 211.912 20.0311 211.664 20.2226C211.415 20.4142 211.24 20.6187 211.139 20.8361L210.27 20.5255C210.425 20.1631 210.632 19.8809 210.891 19.679C211.152 19.4745 211.437 19.3322 211.745 19.2519C212.056 19.1691 212.361 19.1277 212.662 19.1277C212.853 19.1277 213.073 19.151 213.322 19.1976C213.573 19.2415 213.815 19.3335 214.048 19.4732C214.283 19.613 214.479 19.824 214.634 20.1061C214.789 20.3883 214.867 20.7662 214.867 21.2399V25.1694H213.951V24.3617H213.904C213.842 24.4912 213.738 24.6296 213.593 24.7772C213.449 24.9247 213.256 25.0503 213.015 25.1538C212.774 25.2574 212.48 25.3091 212.134 25.3091ZM212.273 24.486C212.636 24.486 212.941 24.4148 213.19 24.2724C213.441 24.13 213.63 23.9463 213.756 23.7211C213.886 23.4958 213.951 23.259 213.951 23.0105V22.1718C213.912 22.2184 213.826 22.2611 213.694 22.3C213.565 22.3362 213.415 22.3685 213.244 22.397C213.076 22.4229 212.911 22.4462 212.751 22.4669C212.593 22.485 212.465 22.5006 212.367 22.5135C212.128 22.5446 211.906 22.595 211.699 22.6649C211.494 22.7322 211.328 22.8345 211.202 22.9717C211.077 23.1063 211.015 23.2901 211.015 23.523C211.015 23.8414 211.133 24.0821 211.369 24.2452C211.607 24.4057 211.908 24.486 212.273 24.486ZM219.133 19.2053V19.9819H216.043V19.2053H219.133ZM216.943 17.7764H217.86V23.4609C217.86 23.7198 217.897 23.9139 217.972 24.0433C218.05 24.1702 218.148 24.2556 218.267 24.2996C218.389 24.341 218.517 24.3617 218.652 24.3617C218.753 24.3617 218.836 24.3565 218.9 24.3462C218.965 24.3332 219.017 24.3229 219.056 24.3151L219.242 25.1383C219.18 25.1616 219.093 25.1849 218.982 25.2082C218.871 25.2341 218.73 25.247 218.559 25.247C218.3 25.247 218.046 25.1914 217.798 25.0801C217.552 24.9687 217.347 24.7992 217.184 24.5714C217.024 24.3436 216.943 24.0563 216.943 23.7094V17.7764ZM220.512 25.1694V19.2053H221.428V25.1694H220.512ZM220.978 18.2113C220.799 18.2113 220.645 18.1505 220.516 18.0288C220.389 17.9072 220.325 17.7609 220.325 17.5901C220.325 17.4192 220.389 17.273 220.516 17.1513C220.645 17.0296 220.799 16.9688 220.978 16.9688C221.156 16.9688 221.309 17.0296 221.436 17.1513C221.565 17.273 221.63 17.4192 221.63 17.5901C221.63 17.7609 221.565 17.9072 221.436 18.0288C221.309 18.1505 221.156 18.2113 220.978 18.2113ZM224.023 21.5816V25.1694H223.106V19.2053H223.992V20.1372H224.069C224.209 19.8343 224.422 19.591 224.706 19.4072C224.991 19.2208 225.358 19.1277 225.809 19.1277C226.213 19.1277 226.566 19.2105 226.869 19.3762C227.172 19.5392 227.407 19.7877 227.576 20.1217C227.744 20.453 227.828 20.8724 227.828 21.3797V25.1694H226.912V21.4418C226.912 20.9733 226.79 20.6083 226.547 20.3469C226.303 20.0828 225.969 19.9508 225.545 19.9508C225.252 19.9508 224.991 20.0143 224.761 20.1411C224.533 20.2679 224.353 20.453 224.221 20.6963C224.089 20.9396 224.023 21.2347 224.023 21.5816ZM231.91 27.5301C231.467 27.5301 231.086 27.4732 230.768 27.3593C230.45 27.248 230.184 27.1004 229.972 26.9166C229.762 26.7354 229.596 26.5413 229.471 26.3342L230.201 25.8217C230.284 25.9304 230.389 26.0546 230.516 26.1944C230.643 26.3368 230.816 26.4597 231.036 26.5633C231.259 26.6694 231.55 26.7225 231.91 26.7225C232.391 26.7225 232.788 26.606 233.102 26.373C233.415 26.1401 233.572 25.7751 233.572 25.2781V24.0666H233.494C233.427 24.1753 233.331 24.31 233.207 24.4704C233.085 24.6283 232.909 24.7694 232.679 24.8937C232.451 25.0153 232.143 25.0762 231.754 25.0762C231.273 25.0762 230.841 24.9623 230.458 24.7345C230.077 24.5067 229.775 24.1753 229.553 23.7405C229.333 23.3056 229.223 22.7775 229.223 22.1563C229.223 21.5454 229.33 21.0134 229.545 20.5604C229.76 20.1048 230.059 19.7528 230.442 19.5043C230.825 19.2532 231.268 19.1277 231.77 19.1277C232.158 19.1277 232.466 19.1924 232.694 19.3218C232.925 19.4487 233.101 19.5936 233.222 19.7567C233.347 19.9172 233.442 20.0492 233.51 20.1527H233.603V19.2053H234.488V25.3402C234.488 25.8527 234.371 26.2695 234.138 26.5905C233.908 26.914 233.598 27.1509 233.207 27.301C232.818 27.4538 232.386 27.5301 231.91 27.5301ZM231.879 24.253C232.246 24.253 232.557 24.1689 232.811 24.0006C233.064 23.8324 233.257 23.5903 233.389 23.2745C233.521 22.9587 233.587 22.5808 233.587 22.1407C233.587 21.7111 233.523 21.3318 233.393 21.0031C233.264 20.6743 233.072 20.4168 232.818 20.2304C232.565 20.044 232.251 19.9508 231.879 19.9508C231.49 19.9508 231.167 20.0492 230.908 20.2459C230.652 20.4426 230.459 20.7067 230.329 21.038C230.203 21.3694 230.139 21.7369 230.139 22.1407C230.139 22.5549 230.204 22.9212 230.333 23.2396C230.465 23.5554 230.66 23.8039 230.916 23.9851C231.174 24.1637 231.495 24.253 231.879 24.253ZM241.664 25.2936C241.125 25.2936 240.653 25.1655 240.246 24.9092C239.842 24.6529 239.527 24.2944 239.299 23.8336C239.074 23.3729 238.961 22.8345 238.961 22.2184C238.961 21.5971 239.074 21.0548 239.299 20.5915C239.527 20.1281 239.842 19.7683 240.246 19.5121C240.653 19.2558 241.125 19.1277 241.664 19.1277C242.202 19.1277 242.673 19.2558 243.077 19.5121C243.483 19.7683 243.799 20.1281 244.024 20.5915C244.252 21.0548 244.366 21.5971 244.366 22.2184C244.366 22.8345 244.252 23.3729 244.024 23.8336C243.799 24.2944 243.483 24.6529 243.077 24.9092C242.673 25.1655 242.202 25.2936 241.664 25.2936ZM241.664 24.4704C242.073 24.4704 242.409 24.3656 242.673 24.1559C242.937 23.9463 243.133 23.6706 243.259 23.3289C243.386 22.9872 243.449 22.6171 243.449 22.2184C243.449 21.8198 243.386 21.4483 243.259 21.104C243.133 20.7597 242.937 20.4815 242.673 20.2692C242.409 20.057 242.073 19.9508 241.664 19.9508C241.254 19.9508 240.918 20.057 240.654 20.2692C240.39 20.4815 240.195 20.7597 240.068 21.104C239.941 21.4483 239.877 21.8198 239.877 22.2184C239.877 22.6171 239.941 22.9872 240.068 23.3289C240.195 23.6706 240.39 23.9463 240.654 24.1559C240.918 24.3656 241.254 24.4704 241.664 24.4704ZM246.681 21.5816V25.1694H245.765V19.2053H246.65V20.1372H246.728C246.868 19.8343 247.08 19.591 247.364 19.4072C247.649 19.2208 248.017 19.1277 248.467 19.1277C248.871 19.1277 249.224 19.2105 249.527 19.3762C249.83 19.5392 250.066 19.7877 250.234 20.1217C250.402 20.453 250.486 20.8724 250.486 21.3797V25.1694H249.57V21.4418C249.57 20.9733 249.448 20.6083 249.205 20.3469C248.962 20.0828 248.628 19.9508 248.203 19.9508C247.911 19.9508 247.649 20.0143 247.419 20.1411C247.191 20.2679 247.011 20.453 246.879 20.6963C246.747 20.9396 246.681 21.2347 246.681 21.5816ZM261.759 19.7023H260.796C260.739 19.4254 260.639 19.182 260.497 18.9723C260.357 18.7627 260.187 18.5867 259.985 18.4443C259.785 18.2993 259.564 18.1906 259.321 18.1181C259.077 18.0457 258.824 18.0094 258.56 18.0094C258.078 18.0094 257.642 18.1311 257.251 18.3744C256.863 18.6177 256.553 18.9762 256.323 19.45C256.095 19.9236 255.981 20.5048 255.981 21.1933C255.981 21.8819 256.095 22.463 256.323 22.9367C256.553 23.4104 256.863 23.7689 257.251 24.0123C257.642 24.2556 258.078 24.3772 258.56 24.3772C258.824 24.3772 259.077 24.341 259.321 24.2685C259.564 24.1961 259.785 24.0886 259.985 23.9463C260.187 23.8013 260.357 23.624 260.497 23.4143C260.639 23.202 260.739 22.9587 260.796 22.6843H261.759C261.687 23.0907 261.555 23.4544 261.363 23.7754C261.172 24.0964 260.933 24.3695 260.649 24.5947C260.364 24.8173 260.044 24.9869 259.69 25.1034C259.338 25.2198 258.961 25.2781 258.56 25.2781C257.881 25.2781 257.278 25.1124 256.75 24.7811C256.222 24.4497 255.807 23.9786 255.504 23.3677C255.201 22.7568 255.05 22.032 255.05 21.1933C255.05 20.3546 255.201 19.6298 255.504 19.0189C255.807 18.408 256.222 17.9369 256.75 17.6056C257.278 17.2743 257.881 17.1086 258.56 17.1086C258.961 17.1086 259.338 17.1668 259.69 17.2833C260.044 17.3998 260.364 17.5706 260.649 17.7958C260.933 18.0185 261.172 18.2903 261.363 18.6113C261.555 18.9296 261.687 19.2933 261.759 19.7023ZM264.946 25.3091C264.568 25.3091 264.225 25.2379 263.917 25.0956C263.609 24.9506 263.364 24.7422 263.183 24.4704C263.002 24.1961 262.911 23.8647 262.911 23.4764C262.911 23.1348 262.979 22.8578 263.113 22.6455C263.248 22.4307 263.428 22.2624 263.653 22.1407C263.878 22.0191 264.127 21.9285 264.398 21.8689C264.673 21.8068 264.948 21.7576 265.225 21.7214C265.588 21.6748 265.882 21.6399 266.107 21.6166C266.335 21.5907 266.5 21.548 266.604 21.4884C266.71 21.4289 266.763 21.3253 266.763 21.1778V21.1467C266.763 20.7636 266.658 20.4659 266.448 20.2537C266.241 20.0414 265.927 19.9353 265.505 19.9353C265.067 19.9353 264.725 20.0311 264.476 20.2226C264.228 20.4142 264.053 20.6187 263.952 20.8361L263.082 20.5255C263.237 20.1631 263.445 19.8809 263.703 19.679C263.965 19.4745 264.249 19.3322 264.557 19.2519C264.868 19.1691 265.174 19.1277 265.474 19.1277C265.666 19.1277 265.886 19.151 266.134 19.1976C266.385 19.2415 266.627 19.3335 266.86 19.4732C267.096 19.613 267.291 19.824 267.446 20.1061C267.602 20.3883 267.679 20.7662 267.679 21.2399V25.1694H266.763V24.3617H266.717C266.654 24.4912 266.551 24.6296 266.406 24.7772C266.261 24.9247 266.068 25.0503 265.827 25.1538C265.587 25.2574 265.293 25.3091 264.946 25.3091ZM265.086 24.486C265.448 24.486 265.754 24.4148 266.002 24.2724C266.253 24.13 266.442 23.9463 266.569 23.7211C266.698 23.4958 266.763 23.259 266.763 23.0105V22.1718C266.724 22.2184 266.639 22.2611 266.507 22.3C266.377 22.3362 266.227 22.3685 266.056 22.397C265.888 22.4229 265.724 22.4462 265.563 22.4669C265.405 22.485 265.277 22.5006 265.179 22.5135C264.941 22.5446 264.718 22.595 264.511 22.6649C264.306 22.7322 264.141 22.8345 264.014 22.9717C263.89 23.1063 263.828 23.2901 263.828 23.523C263.828 23.8414 263.945 24.0821 264.181 24.2452C264.419 24.4057 264.721 24.486 265.086 24.486ZM269.352 27.4059V19.2053H270.237V20.1527H270.346C270.413 20.0492 270.506 19.9172 270.625 19.7567C270.747 19.5936 270.921 19.4487 271.146 19.3218C271.374 19.1924 271.682 19.1277 272.07 19.1277C272.572 19.1277 273.015 19.2532 273.398 19.5043C273.781 19.7554 274.08 20.1113 274.295 20.5721C274.51 21.0328 274.617 21.5764 274.617 22.2029C274.617 22.8345 274.51 23.382 274.295 23.8453C274.08 24.3061 273.782 24.6633 273.402 24.917C273.021 25.1681 272.582 25.2936 272.086 25.2936C271.702 25.2936 271.395 25.2302 271.165 25.1034C270.935 24.9739 270.757 24.8277 270.633 24.6646C270.509 24.4989 270.413 24.3617 270.346 24.253H270.268V27.4059H269.352ZM270.253 22.1873C270.253 22.6377 270.319 23.0351 270.451 23.3794C270.583 23.7211 270.776 23.989 271.029 24.1831C271.283 24.3747 271.594 24.4704 271.961 24.4704C272.344 24.4704 272.664 24.3695 272.92 24.1676C273.179 23.9631 273.373 23.6887 273.503 23.3444C273.635 22.9975 273.701 22.6119 273.701 22.1873C273.701 21.768 273.636 21.3901 273.507 21.0536C273.38 20.7144 273.187 20.4465 272.928 20.2498C272.672 20.0505 272.349 19.9508 271.961 19.9508C271.589 19.9508 271.275 20.0453 271.022 20.2343C270.768 20.4206 270.576 20.6821 270.447 21.0186C270.317 21.3525 270.253 21.7421 270.253 22.1873ZM278.608 19.2053V19.9819H275.518V19.2053H278.608ZM276.419 17.7764H277.335V23.4609C277.335 23.7198 277.372 23.9139 277.448 24.0433C277.525 24.1702 277.624 24.2556 277.743 24.2996C277.864 24.341 277.993 24.3617 278.127 24.3617C278.228 24.3617 278.311 24.3565 278.375 24.3462C278.44 24.3332 278.492 24.3229 278.531 24.3151L278.717 25.1383C278.655 25.1616 278.569 25.1849 278.457 25.2082C278.346 25.2341 278.205 25.247 278.034 25.247C277.775 25.247 277.522 25.1914 277.273 25.0801C277.027 24.9687 276.823 24.7992 276.659 24.5714C276.499 24.3436 276.419 24.0563 276.419 23.7094V17.7764ZM282.423 25.2936C281.849 25.2936 281.353 25.1668 280.936 24.9131C280.522 24.6568 280.202 24.2996 279.977 23.8414C279.755 23.3807 279.643 22.8448 279.643 22.2339C279.643 21.623 279.755 21.0846 279.977 20.6187C280.202 20.1501 280.516 19.7851 280.917 19.5237C281.321 19.2597 281.792 19.1277 282.33 19.1277C282.641 19.1277 282.948 19.1794 283.25 19.283C283.553 19.3865 283.829 19.5548 284.078 19.7877C284.326 20.0181 284.524 20.3236 284.672 20.7041C284.819 21.0846 284.893 21.5531 284.893 22.1097V22.498H280.296V21.7059H283.961C283.961 21.3694 283.894 21.0691 283.759 20.8051C283.627 20.541 283.438 20.3326 283.192 20.1799C282.949 20.0272 282.662 19.9508 282.33 19.9508C281.965 19.9508 281.649 20.0414 281.383 20.2226C281.119 20.4012 280.916 20.6342 280.773 20.9215C280.631 21.2088 280.56 21.5169 280.56 21.8456V22.3737C280.56 22.8241 280.637 23.2059 280.793 23.5191C280.951 23.8298 281.169 24.0666 281.449 24.2297C281.728 24.3902 282.053 24.4704 282.423 24.4704C282.664 24.4704 282.882 24.4368 283.076 24.3695C283.273 24.2996 283.442 24.1961 283.584 24.0588C283.727 23.9191 283.837 23.7457 283.915 23.5386L284.8 23.7871C284.706 24.0873 284.55 24.3514 284.33 24.5792C284.11 24.8044 283.838 24.9804 283.514 25.1072C283.191 25.2315 282.827 25.2936 282.423 25.2936ZM286.287 25.1694V19.2053H287.172V20.1061H287.234C287.343 19.811 287.54 19.5716 287.825 19.3878C288.109 19.204 288.43 19.1121 288.787 19.1121C288.855 19.1121 288.939 19.1134 289.04 19.116C289.141 19.1186 289.217 19.1225 289.269 19.1277V20.0595C289.238 20.0518 289.167 20.0401 289.055 20.0246C288.947 20.0065 288.831 19.9974 288.71 19.9974C288.42 19.9974 288.161 20.0583 287.933 20.1799C287.708 20.299 287.529 20.4647 287.397 20.6769C287.268 20.8866 287.203 21.126 287.203 21.3952V25.1694H286.287ZM290.355 25.1694V19.2053H291.24V20.1061H291.303C291.411 19.811 291.608 19.5716 291.893 19.3878C292.178 19.204 292.499 19.1121 292.856 19.1121C292.923 19.1121 293.007 19.1134 293.108 19.116C293.209 19.1186 293.285 19.1225 293.337 19.1277V20.0595C293.306 20.0518 293.235 20.0401 293.124 20.0246C293.015 20.0065 292.9 19.9974 292.778 19.9974C292.488 19.9974 292.229 20.0583 292.002 20.1799C291.776 20.299 291.598 20.4647 291.466 20.6769C291.336 20.8866 291.271 21.126 291.271 21.3952V25.1694H290.355ZM296.179 25.3091C295.801 25.3091 295.459 25.2379 295.149 25.0956C294.842 24.9506 294.597 24.7422 294.416 24.4704C294.234 24.1961 294.144 23.8647 294.144 23.4764C294.144 23.1348 294.211 22.8578 294.346 22.6455C294.48 22.4307 294.66 22.2624 294.886 22.1407C295.111 22.0191 295.358 21.9285 295.63 21.8689C295.905 21.8068 296.182 21.7576 296.457 21.7214C296.82 21.6748 297.115 21.6399 297.34 21.6166C297.567 21.5907 297.732 21.548 297.836 21.4884C297.942 21.4289 297.995 21.3253 297.995 21.1778V21.1467C297.995 20.7636 297.892 20.4659 297.682 20.2537C297.475 20.0414 297.159 19.9353 296.737 19.9353C296.3 19.9353 295.958 20.0311 295.71 20.2226C295.459 20.4142 295.284 20.6187 295.184 20.8361L294.315 20.5255C294.47 20.1631 294.677 19.8809 294.936 19.679C295.197 19.4745 295.482 19.3322 295.789 19.2519C296.099 19.1691 296.406 19.1277 296.708 19.1277C296.897 19.1277 297.118 19.151 297.366 19.1976C297.617 19.2415 297.859 19.3335 298.092 19.4732C298.329 19.613 298.524 19.824 298.68 20.1061C298.834 20.3883 298.913 20.7662 298.913 21.2399V25.1694H297.995V24.3617H297.948C297.886 24.4912 297.782 24.6296 297.638 24.7772C297.493 24.9247 297.301 25.0503 297.059 25.1538C296.82 25.2574 296.525 25.3091 296.179 25.3091ZM296.318 24.486C296.681 24.486 296.985 24.4148 297.233 24.2724C297.484 24.13 297.673 23.9463 297.8 23.7211C297.93 23.4958 297.995 23.259 297.995 23.0105V22.1718C297.957 22.2184 297.871 22.2611 297.738 22.3C297.611 22.3362 297.461 22.3685 297.289 22.397C297.121 22.4229 296.956 22.4462 296.796 22.4669C296.637 22.485 296.51 22.5006 296.412 22.5135C296.173 22.5446 295.952 22.595 295.742 22.6649C295.538 22.7322 295.373 22.8345 295.247 22.9717C295.122 23.1063 295.06 23.2901 295.06 23.523C295.06 23.8414 295.178 24.0821 295.414 24.2452C295.651 24.4057 295.952 24.486 296.318 24.486Z" fill="#69727A"/>
<mask id="mask2_1_37" style="mask-type:luminance" maskUnits="userSpaceOnUse" x="151" y="0" width="31" height="30">
<path d="M181.599 0.366211H151.181V29.5985H181.599V0.366211Z" fill="white"/>
</mask>
<g mask="url(#mask2_1_37)">
<path d="M151.936 11.1593L163.39 11.1616L170.354 11.1628V4.26282L151.936 11.1593Z" fill="#FF9D28"/>
<path d="M170.354 4.26276V28.6232L179.053 1.00458L170.354 4.26276Z" fill="#68C5ED"/>
<path d="M170.354 11.1627L163.39 11.1616L170.354 28.6232V11.1627Z" fill="#044D80"/>
<path d="M151.936 11.1593L165.176 15.642L163.39 11.1616L151.936 11.1593Z" fill="#E54747"/>
<path d="M194.13 22.2107C194.029 22.3117 193.861 22.4377 193.625 22.589C193.39 22.7405 193.083 22.8918 192.704 23.0433C192.326 23.1945 191.863 23.3246 191.317 23.4343C190.77 23.5434 190.144 23.5982 189.438 23.5982C188.075 23.5982 186.898 23.3794 185.905 22.9424C184.913 22.5053 184.093 21.8952 183.446 21.1133C182.798 20.3311 182.323 19.4063 182.02 18.338C181.718 17.2701 181.566 16.097 181.566 14.8186C181.566 13.5407 181.73 12.3589 182.058 11.2741C182.386 10.1892 182.878 9.25187 183.534 8.46098C184.19 7.6707 185.01 7.05248 185.994 6.60664C186.978 6.16128 188.134 5.93811 189.463 5.93811C190.119 5.93811 190.712 5.99717 191.241 6.11469C191.771 6.23247 192.234 6.37134 192.629 6.53097C193.024 6.69103 193.352 6.85887 193.613 7.03556C193.873 7.21214 194.071 7.35966 194.206 7.477C194.357 7.61188 194.487 7.77154 194.597 7.95632C194.706 8.14163 194.761 8.34346 194.761 8.5619C194.761 8.89854 194.635 9.23474 194.383 9.57103C194.13 9.90768 193.853 10.2188 193.55 10.5045C193.348 10.3027 193.121 10.097 192.869 9.88651C192.616 9.67627 192.335 9.49149 192.024 9.33142C191.712 9.17179 191.359 9.03732 190.964 8.92778C190.568 8.81855 190.127 8.76372 189.64 8.76372C188.782 8.76372 188.063 8.9364 187.482 9.28093C186.902 9.62587 186.435 10.0756 186.082 10.6307C185.729 11.1858 185.477 11.8207 185.325 12.5355C185.174 13.2505 185.098 13.9778 185.098 14.7178C185.098 15.5085 185.174 16.2653 185.325 16.9882C185.477 17.7115 185.737 18.3508 186.107 18.9056C186.477 19.4606 186.961 19.9065 187.558 20.2427C188.155 20.5794 188.899 20.7474 189.791 20.7474C190.261 20.7474 190.695 20.6886 191.09 20.5708C191.485 20.4532 191.834 20.3101 192.137 20.1417C192.44 19.9739 192.705 19.7974 192.932 19.6122C193.159 19.4272 193.348 19.2676 193.499 19.1327C193.6 19.2507 193.718 19.3938 193.853 19.5617C193.988 19.7314 194.114 19.9083 194.231 20.0915C194.349 20.2768 194.449 20.4617 194.534 20.6463C194.618 20.8318 194.66 20.9997 194.66 21.1508C194.66 21.3698 194.618 21.5547 194.534 21.706C194.449 21.8574 194.315 22.0258 194.13 22.2107ZM207.131 20.2757C207.131 21.6125 207.326 22.5855 207.715 23.1946C207.411 23.3128 207.127 23.3976 206.865 23.4483C206.603 23.4992 206.328 23.5244 206.04 23.5244C205.431 23.5244 204.97 23.406 204.657 23.1692C204.344 22.9325 204.145 22.5941 204.061 22.1539C203.688 22.5435 203.197 22.8733 202.588 23.1441C201.979 23.4143 201.234 23.55 200.355 23.55C199.898 23.55 199.441 23.4866 198.984 23.3606C198.527 23.2335 198.113 23.0272 197.74 22.7408C197.368 22.4538 197.064 22.0701 196.827 21.5893C196.59 21.1086 196.472 20.5226 196.472 19.8312C196.472 18.971 196.679 18.2707 197.093 17.7313C197.508 17.1913 198.028 16.7655 198.654 16.4533C199.28 16.1415 199.957 15.9269 200.685 15.8085C201.412 15.6903 202.081 15.6147 202.69 15.5805C202.893 15.5638 203.092 15.5551 203.286 15.5551H203.832V15.0932C203.832 14.4428 203.658 13.9807 203.312 13.7071C202.965 13.4334 202.402 13.2963 201.624 13.2963C200.896 13.2963 200.249 13.4148 199.682 13.6515C199.115 13.8887 198.561 14.1592 198.02 14.4638C197.783 14.1762 197.592 13.8591 197.449 13.512C197.305 13.1654 197.233 12.9073 197.233 12.7379C197.233 12.5011 197.364 12.2727 197.626 12.0526C197.889 11.8329 198.248 11.6338 198.705 11.4561C199.162 11.2785 199.686 11.1349 200.279 11.0247C200.871 10.9148 201.497 10.8597 202.157 10.8597C203.071 10.8597 203.845 10.9529 204.479 11.1389C205.114 11.3253 205.63 11.6128 206.028 12.0018C206.425 12.3913 206.708 12.8775 206.878 13.4612C207.047 14.045 207.132 14.7263 207.132 15.5044L207.131 20.2757ZM203.882 17.3317H203.528C203.409 17.3317 203.29 17.3405 203.172 17.3572C202.749 17.3912 202.33 17.4419 201.916 17.5093C201.501 17.5771 201.133 17.6956 200.812 17.8647C200.49 18.034 200.228 18.2541 200.025 18.5245C199.822 18.7954 199.72 19.1425 199.72 19.5653C199.72 20.0391 199.855 20.4407 200.126 20.7707C200.397 21.1008 200.854 21.2657 201.497 21.2657C201.818 21.2657 202.123 21.2237 202.41 21.1386C202.698 21.0544 202.952 20.9443 203.172 20.809C203.392 20.6735 203.565 20.5256 203.692 20.3646C203.819 20.2041 203.883 20.0561 203.883 19.9206L203.882 17.3317ZM213.451 12.3317C213.72 12.0105 214.142 11.6845 214.716 11.3545C215.289 11.0245 216.015 10.8596 216.892 10.8596C217.516 10.8596 218.111 10.9654 218.676 11.1768C219.241 11.3885 219.743 11.7313 220.181 12.2047C220.62 12.6787 220.97 13.3048 221.231 14.0829C221.493 14.8614 221.623 15.8176 221.623 16.9509C221.623 18.2707 221.472 19.3581 221.168 20.2124C220.864 21.0671 220.473 21.7439 219.992 22.2429C219.511 22.7421 218.975 23.0932 218.385 23.2962C217.795 23.4992 217.204 23.6008 216.614 23.6008C216.125 23.6008 215.699 23.5458 215.336 23.4359C214.974 23.3257 214.666 23.2034 214.413 23.0678C214.16 22.9326 213.966 22.7974 213.831 22.6617C213.696 22.5265 213.612 22.4332 213.578 22.3823V28.6215H210.126V11.2148C210.211 11.1982 210.314 11.1812 210.433 11.1642C210.536 11.1476 210.655 11.1348 210.791 11.126C210.927 11.1177 211.09 11.1134 211.277 11.1134C211.839 11.1134 212.317 11.2066 212.709 11.3926C213.101 11.579 213.349 11.8918 213.451 12.3317ZM218.019 17.027C218.019 16.5194 217.977 16.046 217.893 15.6058C217.809 15.166 217.67 14.7852 217.477 14.4637C217.284 14.1424 217.023 13.8926 216.694 13.7148C216.366 13.5372 215.967 13.4485 215.496 13.4485C214.789 13.4485 214.297 13.5841 214.02 13.8545C213.742 14.1254 213.603 14.4216 213.603 14.7429V20.1237C213.738 20.2592 213.977 20.4197 214.322 20.6059C214.667 20.7922 215.066 20.8849 215.521 20.8849C216.379 20.8849 217.01 20.5468 217.414 19.8698C217.818 19.1931 218.019 18.2453 218.019 17.027ZM224.288 21.3927C224.169 21.0544 224.093 20.6989 224.059 20.3266C224.025 19.9545 224.008 19.5824 224.008 19.2097V7.43312C224.127 7.4165 224.254 7.39946 224.389 7.38236C224.507 7.36574 224.634 7.35313 224.77 7.3443C224.905 7.336 225.04 7.33169 225.176 7.33169C225.446 7.33169 225.717 7.35712 225.988 7.40779C226.259 7.4586 226.504 7.56012 226.724 7.7123C226.944 7.86455 227.122 8.07207 227.257 8.33412C227.393 8.59662 227.46 8.93938 227.46 9.36201V11.164H231.014V13.7276H227.46V19.14C227.46 20.3203 227.942 20.9103 228.907 20.9103C229.144 20.9103 229.368 20.8724 229.58 20.7961C229.791 20.72 229.981 20.6355 230.151 20.5424C230.32 20.4493 230.468 20.3521 230.595 20.2505C230.722 20.1489 230.811 20.0729 230.861 20.0221C231.115 20.3946 231.309 20.717 231.445 20.9891C231.58 21.2615 231.648 21.5171 231.648 21.756C231.648 21.9782 231.56 22.1962 231.382 22.4095C231.204 22.6229 230.954 22.8196 230.633 22.9988C230.311 23.178 229.922 23.3232 229.465 23.4343C229.009 23.5453 228.509 23.6009 227.968 23.6009C226.918 23.6009 226.102 23.3978 225.518 22.9918C224.935 22.5855 224.524 22.0525 224.288 21.3927ZM239.756 21.0626C240.18 21.0626 240.554 21.0163 240.877 20.923C241.199 20.8303 241.488 20.716 241.743 20.5806C241.997 20.4454 242.218 20.2973 242.405 20.1364C242.592 19.9758 242.761 19.8278 242.914 19.6921C243.118 19.9458 243.33 20.2719 243.551 20.6691C243.772 21.0671 243.882 21.3927 243.882 21.6464C243.882 22.0188 243.67 22.3571 243.248 22.6617C242.892 22.9326 242.388 23.1653 241.738 23.3595C241.086 23.554 240.32 23.6514 239.441 23.6514C238.645 23.6514 237.862 23.55 237.093 23.3469C236.323 23.144 235.637 22.7885 235.037 22.2808C234.436 21.7734 233.949 21.0925 233.577 20.2379C233.205 19.3834 233.019 18.305 233.019 17.0017C233.019 15.9356 233.184 15.0181 233.514 14.248C233.844 13.4782 234.284 12.8394 234.834 12.3318C235.384 11.8241 236.005 11.4522 236.699 11.2149C237.393 10.9783 238.104 10.8596 238.832 10.8596C239.779 10.8596 240.583 11.008 241.242 11.3038C241.902 11.6 242.439 11.9978 242.854 12.4967C243.269 12.9959 243.569 13.567 243.755 14.2099C243.941 14.8531 244.034 15.5297 244.034 16.2403V16.5956C244.034 16.7313 244.03 16.8748 244.022 17.0271C244.013 17.1795 244.005 17.3278 243.997 17.4712C243.988 17.6153 243.975 17.7294 243.958 17.8139H236.471C236.539 18.7447 236.827 19.5187 237.337 20.1364C237.846 20.7542 238.652 21.0626 239.756 21.0626ZM240.913 15.9103C240.913 15.0981 240.755 14.4383 240.44 13.9306C240.125 13.4231 239.559 13.1691 238.743 13.1691C238.045 13.1691 237.487 13.4104 237.071 13.8926C236.654 14.3749 236.445 15.0474 236.445 15.9102L240.913 15.9103ZM250.041 12.3958C250.143 12.2448 250.278 12.0771 250.447 11.8922C250.616 11.7075 250.824 11.5396 251.069 11.3886C251.314 11.2375 251.585 11.1114 251.882 11.0107C252.177 10.91 252.495 10.8596 252.833 10.8596C253.036 10.8596 253.252 10.8767 253.48 10.91C253.709 10.9437 253.92 11.0067 254.115 11.0988C254.309 11.1912 254.466 11.3169 254.585 11.4763C254.703 11.6358 254.762 11.8329 254.762 12.0676C254.762 12.4368 254.669 12.8608 254.483 13.3395C254.297 13.8185 254.111 14.227 253.925 14.5653C253.637 14.3285 253.349 14.1465 253.061 14.0196C252.774 13.8928 252.435 13.8292 252.046 13.8292C251.522 13.8292 251.082 13.982 250.727 14.2873C250.371 14.5926 250.193 14.9575 250.193 15.3817V23.598H246.742V11.2148C246.826 11.1982 246.928 11.1812 247.046 11.1642C247.148 11.1476 247.266 11.1348 247.402 11.126C247.537 11.1177 247.698 11.1134 247.884 11.1134C248.425 11.1134 248.895 11.2184 249.293 11.4279C249.69 11.6372 249.94 11.96 250.041 12.3958ZM259.855 12.3958C259.957 12.2448 260.092 12.0771 260.261 11.8922C260.43 11.7075 260.638 11.5396 260.883 11.3886C261.128 11.2375 261.399 11.1114 261.695 11.0107C261.991 10.91 262.308 10.8596 262.647 10.8596C262.85 10.8596 263.066 10.8767 263.294 10.91C263.523 10.9437 263.734 11.0067 263.929 11.0988C264.123 11.1912 264.28 11.3169 264.398 11.4763C264.516 11.6358 264.576 11.8329 264.576 12.0676C264.576 12.4368 264.483 12.8608 264.297 13.3395C264.11 13.8185 263.924 14.227 263.738 14.5653C263.451 14.3285 263.163 14.1465 262.875 14.0196C262.588 13.8928 262.249 13.8292 261.86 13.8292C261.336 13.8292 260.896 13.982 260.541 14.2873C260.185 14.5926 260.008 14.9575 260.008 15.3817V23.598H256.556V11.2148C256.64 11.1982 256.742 11.1812 256.86 11.1642C256.962 11.1476 257.08 11.1348 257.216 11.126C257.351 11.1177 257.511 11.1134 257.698 11.1134C258.239 11.1134 258.709 11.2184 259.106 11.4279C259.504 11.6372 259.753 11.96 259.855 12.3958ZM276.327 20.2757C276.327 21.6125 276.522 22.5855 276.911 23.1946C276.606 23.3128 276.323 23.3976 276.061 23.4483C275.799 23.4992 275.524 23.5244 275.236 23.5244C274.627 23.5244 274.166 23.406 273.853 23.1692C273.539 22.9325 273.341 22.5941 273.256 22.1539C272.884 22.5435 272.393 22.8733 271.784 23.1441C271.175 23.4143 270.43 23.55 269.551 23.55C269.094 23.55 268.637 23.4866 268.18 23.3606C267.723 23.2335 267.309 23.0272 266.936 22.7408C266.564 22.4538 266.26 22.0701 266.023 21.5893C265.786 21.1086 265.668 20.5226 265.668 19.8312C265.668 18.971 265.874 18.2707 266.29 17.7313C266.704 17.1913 267.224 16.7655 267.85 16.4533C268.476 16.1415 269.153 15.9269 269.881 15.8085C270.608 15.6903 271.277 15.6147 271.886 15.5805C272.089 15.5638 272.287 15.5551 272.482 15.5551H273.028V15.0932C273.028 14.4428 272.854 13.9807 272.508 13.7071C272.16 13.4334 271.598 13.2963 270.82 13.2963C270.092 13.2963 269.445 13.4148 268.878 13.6515C268.311 13.8887 267.757 14.1592 267.216 14.4638C266.979 14.1762 266.788 13.8591 266.645 13.512C266.501 13.1654 266.429 12.9073 266.429 12.7379C266.429 12.5011 266.56 12.2727 266.822 12.0526C267.085 11.8329 267.444 11.6338 267.901 11.4561C268.358 11.2785 268.882 11.1349 269.475 11.0247C270.067 10.9148 270.693 10.8597 271.353 10.8597C272.266 10.8597 273.041 10.9529 273.675 11.1389C274.31 11.3253 274.826 11.6128 275.223 12.0018C275.621 12.3913 275.904 12.8775 276.074 13.4612C276.242 14.045 276.327 14.7263 276.327 15.5044V20.2757ZM273.079 17.3317H272.723C272.605 17.3317 272.486 17.3405 272.368 17.3572C271.945 17.3912 271.526 17.4419 271.112 17.5093C270.697 17.5771 270.329 17.6956 270.008 17.8647C269.686 18.034 269.424 18.2541 269.221 18.5245C269.018 18.7954 268.916 19.1425 268.916 19.5653C268.916 20.0391 269.052 20.4407 269.322 20.7707C269.593 21.1008 270.05 21.2657 270.693 21.2657C271.014 21.2657 271.319 21.2237 271.607 21.1386C271.894 21.0544 272.148 20.9443 272.368 20.809C272.587 20.6735 272.762 20.5256 272.888 20.3646C273.015 20.2041 273.079 20.0561 273.079 19.9206L273.079 17.3317Z" fill="#044D80"/>
</g>
</svg>
